<?xml version="1.0" encoding="UTF-8"?>
<!DOCTYPE svg PUBLIC "-//W3C//DTD SVG 1.1//EN" "http://www.w3.org/Graphics/SVG/1.1/DTD/svg11.dtd">
<svg version="1.1" xmlns="http://www.w3.org/2000/svg" xmlns:xlink="http://www.w3.org/1999/xlink" x="0" y="0" width="800" height="600" viewBox="0, 0, 800, 600">
  <defs>
    <pattern id="Pattern_1" patternUnits="userSpaceOnUse" x="250" y="425" width="40" height="40">
      <g transform="translate(-0, 0)">
        <path d="M40,0 L0,0 L0,40 L40,40 L40,0 z" fill="#CBCBCB"/>
        <path d="M30,0 L40,10 L40,0 L30,0 z" fill="#929292"/>
        <path d="M0,40 L0,30 L10,40 L0,40 z" fill="#929292"/>
        <path d="M30,40 L40,40 L40,30 L10,-0 L0,-0 L0,10" fill="#929292"/>
      </g>
    </pattern>
  </defs>
  <g id="Layer_1">
    <path d="M350.5,10.5 C240.043,10.5 150.5,50.794 150.5,100.5 C150.5,150.206 240.043,190.5 350.5,190.5 C460.957,190.5 550.5,150.206 550.5,100.5 C550.5,50.794 460.957,10.5 350.5,10.5 z" fill-opacity="0" stroke="#000000" stroke-width="1" stroke-linecap="round" stroke-linejoin="round"/>
    <text transform="matrix(1, 0, 0, 1, 350, 240)">
      <tspan x="-58.788" y="8" font-family="HelveticaNeue-CondensedBold" font-size="24" fill="#000000">4000 Meters</tspan>
    </text>
    <text transform="matrix(1, 0, 0, 1, 350, 140)">
      <tspan x="-95.706" y="2" font-family="HelveticaNeue-CondensedBold" font-size="18" fill="#000000">18.1 meters @2000 meters</tspan>
    </text>
    <g>
      <g>
        <path d="M145.5,85.5 L155.5,85.5 L155.5,115.5 L145.5,115.5 z" fill="#FF9592"/>
        <path d="M145.5,85.5 L155.5,85.5 L155.5,115.5 L145.5,115.5 z" fill-opacity="0" stroke="#000000" stroke-width="1" stroke-linecap="round" stroke-linejoin="round"/>
      </g>
      <path d="M150.5,115.5 L150.5,190.5" fill-opacity="0" stroke="#000000" stroke-width="1" stroke-linecap="round" stroke-linejoin="round"/>
    </g>
    <g>
      <g>
        <path d="M545.5,85.5 L555.5,85.5 L555.5,115.5 L545.5,115.5 z" fill="#FF9592"/>
        <path d="M545.5,85.5 L555.5,85.5 L555.5,115.5 L545.5,115.5 z" fill-opacity="0" stroke="#000000" stroke-width="1" stroke-linecap="round" stroke-linejoin="round"/>
      </g>
      <path d="M550.5,115.5 L550.5,190.5" fill-opacity="0" stroke="#000000" stroke-width="1" stroke-linecap="round" stroke-linejoin="round"/>
    </g>
    <path d="M155.5,100.5 L545.5,100.5" fill-opacity="0" stroke="#000000" stroke-width="1" stroke-dasharray="10,7" stroke-linecap="round" stroke-linejoin="round"/>
    <path d="M50.5,190.5 L705.5,190.5" fill-opacity="0" stroke="#000000" stroke-width="1" stroke-linecap="round" stroke-linejoin="round"/>
    <text transform="matrix(1, 0, 0, 1, 350, 75)">
      <tspan x="-17.544" y="8" font-family="HelveticaNeue-CondensedBold" font-size="24" fill="#000000">LoS</tspan>
    </text>
    <g>
      <path d="M420.5,240.5 L544.5,240.5" fill-opacity="0" stroke="#000000" stroke-width="1" stroke-linecap="round" stroke-linejoin="round"/>
      <path d="M544.5,240.5 L542.5,243.5 L550.5,240.5 L542.5,237.5 z" fill="#000000" fill-opacity="1" stroke="#000000" stroke-width="1" stroke-opacity="1"/>
    </g>
    <path d="M550.5,245.5 L550.5,210.5" fill-opacity="0" stroke="#000000" stroke-width="1" stroke-linecap="round" stroke-linejoin="round"/>
    <g>
      <path d="M285.5,230.5 L156.5,230.5" fill-opacity="0" stroke="#000000" stroke-width="1" stroke-linecap="round" stroke-linejoin="round"/>
      <path d="M156.5,230.5 L158.5,227.5 L150.5,230.5 L158.5,233.5 z" fill="#000000" fill-opacity="1" stroke="#000000" stroke-width="1" stroke-opacity="1"/>
    </g>
    <path d="M150.5,240.5 L150.5,210.5" fill-opacity="0" stroke="#000000" stroke-width="1" stroke-linecap="round" stroke-linejoin="round"/>
    <g>
      <path d="M350.5,125.5 L350.5,106.5" fill-opacity="0" stroke="#000000" stroke-width="1" stroke-linecap="round" stroke-linejoin="round"/>
      <path d="M350.5,106.5 L353.5,108.5 L350.5,100.5 L347.5,108.5 z" fill="#000000" fill-opacity="1" stroke="#000000" stroke-width="1" stroke-opacity="1"/>
    </g>
    <g>
      <path d="M350.5,150.5 L350.5,184.5" fill-opacity="0" stroke="#000000" stroke-width="1" stroke-linecap="round" stroke-linejoin="round"/>
      <path d="M350.5,184.5 L347.5,182.5 L350.5,190.5 L353.5,182.5 z" fill="#000000" fill-opacity="1" stroke="#000000" stroke-width="1" stroke-opacity="1"/>
    </g>
    <text transform="matrix(1, 0, 0, 1, 676.24, 184)">
      <tspan x="-25.821" y="3" font-family="HelveticaNeue-CondensedBold" font-size="18" fill="#000000">Ground</tspan>
    </text>
    <path d="M350.5,310.5 C240.043,310.5 150.5,350.794 150.5,400.5 C150.5,450.206 240.043,490.5 350.5,490.5 C460.957,490.5 550.5,450.206 550.5,400.5 C550.5,350.794 460.957,310.5 350.5,310.5 z" fill-opacity="0" stroke="#000000" stroke-width="1" stroke-linecap="round" stroke-linejoin="round"/>
    <text transform="matrix(1, 0, 0, 1, 350, 540)">
      <tspan x="-58.788" y="8" font-family="HelveticaNeue-CondensedBold" font-size="24" fill="#000000">4000 Meters</tspan>
    </text>
    <g>
      <g>
        <path d="M145.5,385.5 L155.5,385.5 L155.5,415.5 L145.5,415.5 z" fill="#FF9592"/>
        <path d="M145.5,385.5 L155.5,385.5 L155.5,415.5 L145.5,415.5 z" fill-opacity="0" stroke="#000000" stroke-width="1" stroke-linecap="round" stroke-linejoin="round"/>
      </g>
      <path d="M150.5,415.5 L150.5,490.5" fill-opacity="0" stroke="#000000" stroke-width="1" stroke-linecap="round" stroke-linejoin="round"/>
    </g>
    <g>
      <g>
        <path d="M545.5,385.5 L555.5,385.5 L555.5,415.5 L545.5,415.5 z" fill="#FF9592"/>
        <path d="M545.5,385.5 L555.5,385.5 L555.5,415.5 L545.5,415.5 z" fill-opacity="0" stroke="#000000" stroke-width="1" stroke-linecap="round" stroke-linejoin="round"/>
      </g>
      <path d="M550.5,415.5 L550.5,490.5" fill-opacity="0" stroke="#000000" stroke-width="1" stroke-linecap="round" stroke-linejoin="round"/>
    </g>
    <path d="M155.5,400.5 L545.5,400.5" fill-opacity="0" stroke="#000000" stroke-width="1" stroke-dasharray="10,7" stroke-linecap="round" stroke-linejoin="round"/>
    <path d="M50.5,490.5 L705.5,490.5" fill-opacity="0" stroke="#000000" stroke-width="1" stroke-linecap="round" stroke-linejoin="round"/>
    <text transform="matrix(1, 0, 0, 1, 350, 375)">
      <tspan x="-17.544" y="8" font-family="HelveticaNeue-CondensedBold" font-size="24" fill="#000000">LoS</tspan>
    </text>
    <g>
      <path d="M420.5,540.5 L544.5,540.5" fill-opacity="0" stroke="#000000" stroke-width="1" stroke-linecap="round" stroke-linejoin="round"/>
      <path d="M544.5,540.5 L542.5,543.5 L550.5,540.5 L542.5,537.5 z" fill="#000000" fill-opacity="1" stroke="#000000" stroke-width="1" stroke-opacity="1"/>
    </g>
    <path d="M550.5,545.5 L550.5,510.5" fill-opacity="0" stroke="#000000" stroke-width="1" stroke-linecap="round" stroke-linejoin="round"/>
    <g>
      <path d="M285.5,530.5 L156.5,530.5" fill-opacity="0" stroke="#000000" stroke-width="1" stroke-linecap="round" stroke-linejoin="round"/>
      <path d="M156.5,530.5 L158.5,527.5 L150.5,530.5 L158.5,533.5 z" fill="#000000" fill-opacity="1" stroke="#000000" stroke-width="1" stroke-opacity="1"/>
    </g>
    <path d="M150.5,540.5 L150.5,510.5" fill-opacity="0" stroke="#000000" stroke-width="1" stroke-linecap="round" stroke-linejoin="round"/>
    <g>
      <path d="M350.5,425.5 L350.5,406.5" fill-opacity="0" stroke="#000000" stroke-width="1" stroke-linecap="round" stroke-linejoin="round"/>
      <path d="M350.5,406.5 L353.5,408.5 L350.5,400.5 L347.5,408.5 z" fill="#000000" fill-opacity="1" stroke="#000000" stroke-width="1" stroke-opacity="1"/>
    </g>
    <g>
      <path d="M350.5,450.5 L350.5,484.5" fill-opacity="0" stroke="#000000" stroke-width="1" stroke-linecap="round" stroke-linejoin="round"/>
      <path d="M350.5,484.5 L347.5,482.5 L350.5,490.5 L353.5,482.5 z" fill="#000000" fill-opacity="1" stroke="#000000" stroke-width="1" stroke-opacity="1"/>
    </g>
    <text transform="matrix(1, 0, 0, 1, 676.24, 484)">
      <tspan x="-25.821" y="3" font-family="HelveticaNeue-CondensedBold" font-size="18" fill="#000000">Ground</tspan>
    </text>
    <g>
      <path d="M205.5,425.5 L250.5,425.5 L250.5,490.5 L205.5,490.5 z" fill="#000000"/>
      <path d="M205.5,425.5 L250.5,425.5 L250.5,490.5 L205.5,490.5 z" fill-opacity="0" stroke="#000000" stroke-width="1" stroke-linecap="round" stroke-linejoin="round"/>
    </g>
    <g>
      <path d="M250,490 L250,425 L510,490 z" fill="url(#Pattern_1)"/>
      <path d="M250,490 L250,425 L510,490 z" fill-opacity="0" stroke="#000000" stroke-width="1" stroke-linecap="round" stroke-linejoin="round"/>
    </g>
  </g>
</svg>
