<?xml version="1.0" encoding="UTF-8"?>
<!DOCTYPE svg PUBLIC "-//W3C//DTD SVG 1.1//EN" "http://www.w3.org/Graphics/SVG/1.1/DTD/svg11.dtd">
<svg version="1.1" xmlns="http://www.w3.org/2000/svg" xmlns:xlink="http://www.w3.org/1999/xlink" x="0" y="0" width="768" height="1024" viewBox="0, 0, 768, 1024">
  <g id="Capa_1">
    <g>
      <path d="M444.5,312.5 L516.5,312.5 L504.5,336.5 L432.5,336.5 L444.5,312.5 z" fill="#FFFFFF"/>
      <path d="M444.5,312.5 L516.5,312.5 L504.5,336.5 L432.5,336.5 L444.5,312.5 z" fill-opacity="0" stroke="#000000" stroke-width="1"/>
    </g>
    <g>
      <path d="M288.5,432.5 L360.5,468.5 L288.5,504.5 L216.5,468.5 L288.5,432.5 z" fill="#FFFFFF"/>
      <path d="M288.5,432.5 L360.5,468.5 L288.5,504.5 L216.5,468.5 L288.5,432.5 z" fill-opacity="0" stroke="#000000" stroke-width="1"/>
    </g>
    <text transform="matrix(1, 0, 0, 1, 288, 466)">
      <tspan x="-23.931" y="4.5" font-family="PTSans-CaptionBold" font-size="18" fill="#000000">WAP?</tspan>
    </text>
    <g>
      <path d="M288.5,576.5 L360.5,612.5 L288.5,648.5 L216.5,612.5 L288.5,576.5 z" fill="#FFFFFF"/>
      <path d="M288.5,576.5 L360.5,612.5 L288.5,648.5 L216.5,612.5 L288.5,576.5 z" fill-opacity="0" stroke="#000000" stroke-width="1"/>
    </g>
    <text transform="matrix(1, 0, 0, 1, 288, 610)">
      <tspan x="-23.58" y="4.5" font-family="PTSans-CaptionBold" font-size="18" fill="#000000">WST?</tspan>
    </text>
    <g>
      <path d="M288.5,288.5 L360.5,324.5 L288.5,360.5 L216.5,324.5 L288.5,288.5 z" fill="#FFFFFF"/>
      <path d="M288.5,288.5 L360.5,324.5 L288.5,360.5 L216.5,324.5 L288.5,288.5 z" fill-opacity="0" stroke="#000000" stroke-width="1"/>
    </g>
    <text transform="matrix(1, 0, 0, 1, 288, 322)">
      <tspan x="-15.876" y="4.5" font-family="PTSans-CaptionBold" font-size="18" fill="#000000">BLE</tspan>
    </text>
    <g>
      <path d="M288.5,720.5 L360.5,756.5 L288.5,792.5 L216.5,756.5 L288.5,720.5 z" fill="#FFFFFF"/>
      <path d="M288.5,720.5 L360.5,756.5 L288.5,792.5 L216.5,756.5 L288.5,720.5 z" fill-opacity="0" stroke="#000000" stroke-width="1"/>
    </g>
    <text transform="matrix(1, 0, 0, 1, 288, 754)">
      <tspan x="-22.158" y="4.5" font-family="PTSans-CaptionBold" font-size="18" fill="#000000">RAD?</tspan>
    </text>
    <text transform="matrix(1, 0, 0, 1, 384, 311)">
      <tspan x="-14.49" y="5" font-family="PTSans-CaptionBold" font-size="18" fill="#000000">yes</tspan>
    </text>
    <g>
      <path d="M360.5,324.5 L423.5,324.5" fill-opacity="0" stroke="#000000" stroke-width="1"/>
      <path d="M423.5,327.5 L431.5,324.5 L423.5,321.5 z" fill="#000000" fill-opacity="1" stroke="#000000" stroke-width="1" stroke-opacity="1"/>
    </g>
    <g>
      <path d="M288.5,216.5 L288.5,279.5" fill-opacity="0" stroke="#000000" stroke-width="1"/>
      <path d="M285.5,279.5 L288.5,287.5 L291.5,279.5 z" fill="#000000" fill-opacity="1" stroke="#000000" stroke-width="1" stroke-opacity="1"/>
    </g>
    <text transform="matrix(1, 0, 0, 1, 288, 875)">
      <tspan x="-68.517" y="5" font-family="PTSans-CaptionBold" font-size="18" fill="#000000">system running</tspan>
    </text>
    <text transform="matrix(1, 0, 0, 1, 293.67, 191)">
      <tspan x="-41.67" y="5" font-family="PTSans-CaptionBold" font-size="18" fill="#000000">Power On</tspan>
    </text>
    <g>
      <path d="M288.5,504.5 L288.5,567.5" fill-opacity="0" stroke="#000000" stroke-width="1"/>
      <path d="M285.5,567.5 L288.5,575.5 L291.5,567.5 z" fill="#000000" fill-opacity="1" stroke="#000000" stroke-width="1" stroke-opacity="1"/>
    </g>
    <g>
      <path d="M288.5,648.5 L288.5,711.5" fill-opacity="0" stroke="#000000" stroke-width="1"/>
      <path d="M285.5,711.5 L288.5,719.5 L291.5,711.5 z" fill="#000000" fill-opacity="1" stroke="#000000" stroke-width="1" stroke-opacity="1"/>
    </g>
    <g>
      <path d="M288.5,792.5 L288.5,855.5" fill-opacity="0" stroke="#000000" stroke-width="1"/>
      <path d="M285.5,855.5 L288.5,863.5 L291.5,855.5 z" fill="#000000" fill-opacity="1" stroke="#000000" stroke-width="1" stroke-opacity="1"/>
    </g>
    <text transform="matrix(1, 0, 0, 1, 474, 324)">
      <tspan x="-10.575" y="4" font-family="PTSans-Caption" font-size="18" fill="#000000">S1</tspan>
    </text>
    <text transform="matrix(1, 0, 0, 1, 384, 455)">
      <tspan x="-14.49" y="5" font-family="PTSans-CaptionBold" font-size="18" fill="#000000">yes</tspan>
    </text>
    <g>
      <path d="M360.5,468.5 L423.5,468.5" fill-opacity="0" stroke="#000000" stroke-width="1"/>
      <path d="M423.5,471.5 L431.5,468.5 L423.5,465.5 z" fill="#000000" fill-opacity="1" stroke="#000000" stroke-width="1" stroke-opacity="1"/>
    </g>
    <g>
      <path d="M360.5,612.5 L423.5,612.5" fill-opacity="0" stroke="#000000" stroke-width="1"/>
      <path d="M423.5,615.5 L431.5,612.5 L423.5,609.5 z" fill="#000000" fill-opacity="1" stroke="#000000" stroke-width="1" stroke-opacity="1"/>
    </g>
    <g>
      <path d="M360.5,756.5 L423.5,756.5" fill-opacity="0" stroke="#000000" stroke-width="1"/>
      <path d="M423.5,759.5 L431.5,756.5 L423.5,753.5 z" fill="#000000" fill-opacity="1" stroke="#000000" stroke-width="1" stroke-opacity="1"/>
    </g>
    <text transform="matrix(1, 0, 0, 1, 384, 601)">
      <tspan x="-14.49" y="5" font-family="PTSans-CaptionBold" font-size="18" fill="#000000">yes</tspan>
    </text>
    <text transform="matrix(1, 0, 0, 1, 384, 745)">
      <tspan x="-14.49" y="5" font-family="PTSans-CaptionBold" font-size="18" fill="#000000">yes</tspan>
    </text>
    <g>
      <path d="M444.5,456.5 L516.5,456.5 L504.5,480.5 L432.5,480.5 L444.5,456.5 z" fill="#FFFFFF"/>
      <path d="M444.5,456.5 L516.5,456.5 L504.5,480.5 L432.5,480.5 L444.5,456.5 z" fill-opacity="0" stroke="#000000" stroke-width="1"/>
    </g>
    <text transform="matrix(1, 0, 0, 1, 474, 468)">
      <tspan x="-10.575" y="4" font-family="PTSans-Caption" font-size="18" fill="#000000">S2</tspan>
    </text>
    <g>
      <path d="M444.5,600.5 L516.5,600.5 L504.5,624.5 L432.5,624.5 L444.5,600.5 z" fill="#FFFFFF"/>
      <path d="M444.5,600.5 L516.5,600.5 L504.5,624.5 L432.5,624.5 L444.5,600.5 z" fill-opacity="0" stroke="#000000" stroke-width="1"/>
    </g>
    <text transform="matrix(1, 0, 0, 1, 474, 612)">
      <tspan x="-10.575" y="4" font-family="PTSans-Caption" font-size="18" fill="#000000">S3</tspan>
    </text>
    <g>
      <path d="M444.5,744.5 L516.5,744.5 L504.5,768.5 L432.5,768.5 L444.5,744.5 z" fill="#FFFFFF"/>
      <path d="M444.5,744.5 L516.5,744.5 L504.5,768.5 L432.5,768.5 L444.5,744.5 z" fill-opacity="0" stroke="#000000" stroke-width="1"/>
    </g>
    <text transform="matrix(1, 0, 0, 1, 474, 756)">
      <tspan x="-10.575" y="4" font-family="PTSans-Caption" font-size="18" fill="#000000">S4</tspan>
    </text>
    <path d="M468.5,336.5 C468.5,356.382 452.382,372.5 432.5,372.5" fill-opacity="0" stroke="#000000" stroke-width="1"/>
    <path d="M432.5,372.5 L324.5,372.5" fill-opacity="0" stroke="#000000" stroke-width="1"/>
    <path d="M288.5,408.5 C288.5,388.618 304.618,372.5 324.5,372.5" fill-opacity="0" stroke="#000000" stroke-width="1"/>
    <g>
      <path d="M288.5,408.5 L288.5,423.5" fill-opacity="0" stroke="#000000" stroke-width="1"/>
      <path d="M285.5,423.5 L288.5,431.5 L291.5,423.5 z" fill="#000000" fill-opacity="1" stroke="#000000" stroke-width="1" stroke-opacity="1"/>
    </g>
    <text transform="matrix(1, 0, 0, 1, 270, 515)">
      <tspan x="-11.286" y="5" font-family="PTSans-CaptionBold" font-size="18" fill="#000000">no</tspan>
    </text>
    <path d="M468.5,480.5 C468.5,500.382 452.382,516.5 432.5,516.5" fill-opacity="0" stroke="#000000" stroke-width="1"/>
    <path d="M288.5,552.5 C288.5,532.618 304.618,516.5 324.5,516.5" fill-opacity="0" stroke="#000000" stroke-width="1"/>
    <path d="M432.5,516.5 L324.5,516.5" fill-opacity="0" stroke="#000000" stroke-width="1"/>
    <path d="M468.5,624.5 C468.5,644.382 452.382,660.5 432.5,660.5" fill-opacity="0" stroke="#000000" stroke-width="1"/>
    <path d="M432.5,660.5 L324.5,660.5" fill-opacity="0" stroke="#000000" stroke-width="1"/>
    <path d="M288.5,696.5 C288.5,676.618 304.618,660.5 324.5,660.5" fill-opacity="0" stroke="#000000" stroke-width="1"/>
    <text transform="matrix(1, 0, 0, 1, 270, 659)">
      <tspan x="-11.286" y="5" font-family="PTSans-CaptionBold" font-size="18" fill="#000000">no</tspan>
    </text>
    <text transform="matrix(1, 0, 0, 1, 270, 803)">
      <tspan x="-11.286" y="5" font-family="PTSans-CaptionBold" font-size="18" fill="#000000">no</tspan>
    </text>
    <path d="M468.5,768.5 C468.5,788.382 452.382,804.5 432.5,804.5" fill-opacity="0" stroke="#000000" stroke-width="1"/>
    <path d="M432.5,804.5 L324.5,804.5" fill-opacity="0" stroke="#000000" stroke-width="1"/>
    <path d="M288.5,840.5 C288.5,820.618 304.618,804.5 324.5,804.5" fill-opacity="0" stroke="#000000" stroke-width="1"/>
    <g>
      <path d="M288.5,360.5 L288.5,423.5" fill-opacity="0" stroke="#000000" stroke-width="1"/>
      <path d="M285.5,423.5 L288.5,431.5 L291.5,423.5 z" fill="#000000" fill-opacity="1" stroke="#000000" stroke-width="1" stroke-opacity="1"/>
    </g>
    <text transform="matrix(1, 0, 0, 1, 270, 371)">
      <tspan x="-11.286" y="5" font-family="PTSans-CaptionBold" font-size="18" fill="#000000">no</tspan>
    </text>
  </g>
</svg>
