<?xml version="1.0" encoding="UTF-8"?>
<!DOCTYPE svg PUBLIC "-//W3C//DTD SVG 1.1//EN" "http://www.w3.org/Graphics/SVG/1.1/DTD/svg11.dtd">
<svg version="1.1" xmlns="http://www.w3.org/2000/svg" xmlns:xlink="http://www.w3.org/1999/xlink" x="0" y="0" width="768" height="1024" viewBox="0, 0, 768, 1024">
  <g id="Capa_1">
    <g>
      <path d="M202.656,634 L662.344,634 C667.953,634 672.5,638.477 672.5,644 L672.5,876.5 C672.5,882.023 667.953,886.5 662.344,886.5 L202.656,886.5 C197.047,886.5 192.5,882.023 192.5,876.5 L192.5,644 C192.5,638.477 197.047,634 202.656,634 z" fill="#FFFFFF"/>
      <path d="M202.656,634 L662.344,634 C667.953,634 672.5,638.477 672.5,644 L672.5,876.5 C672.5,882.023 667.953,886.5 662.344,886.5 L202.656,886.5 C197.047,886.5 192.5,882.023 192.5,876.5 L192.5,644 C192.5,638.477 197.047,634 202.656,634 z" fill-opacity="0" stroke="#000000" stroke-width="1" stroke-opacity="0.499"/>
    </g>
    <g>
      <path d="M202.656,204.5 L662.344,204.5 C667.953,204.5 672.5,208.977 672.5,214.5 L672.5,447 C672.5,452.523 667.953,457 662.344,457 L202.656,457 C197.047,457 192.5,452.523 192.5,447 L192.5,214.5 C192.5,208.977 197.047,204.5 202.656,204.5 z" fill="#FFFFFF"/>
      <path d="M202.656,204.5 L662.344,204.5 C667.953,204.5 672.5,208.977 672.5,214.5 L672.5,447 C672.5,452.523 667.953,457 662.344,457 L202.656,457 C197.047,457 192.5,452.523 192.5,447 L192.5,214.5 C192.5,208.977 197.047,204.5 202.656,204.5 z" fill-opacity="0" stroke="#000000" stroke-width="1" stroke-opacity="0.545"/>
    </g>
    <g>
      <path d="M432.5,791.5 L576.5,828 L432.5,864.5 L288.5,828 L432.5,791.5 z" fill="#FFFFFF"/>
      <path d="M432.5,791.5 L576.5,828 L432.5,864.5 L288.5,828 L432.5,791.5 z" fill-opacity="0" stroke="#000000" stroke-width="1"/>
    </g>
    <g>
      <path d="M288.5,72.5 L576.5,72.5 L576.5,144.5 L288.5,144.5 L288.5,72.5 z" fill="#FFFFFF"/>
      <path d="M288.5,72.5 L576.5,72.5 L576.5,144.5 L288.5,144.5 L288.5,72.5 z" fill-opacity="0" stroke="#000000" stroke-width="1"/>
    </g>
    <text transform="matrix(1, 0, 0, 1, 432, 119.5)">
      <tspan x="-70.488" y="-6.5" font-family="PTSans-CaptionBold" font-size="18" fill="#000000">Start BLE Server</tspan>
    </text>
    <g>
      <path d="M432.5,144.5 L432.5,207.5" fill-opacity="0" stroke="#000000" stroke-width="1"/>
      <path d="M429.5,207.5 L432.5,215.5 L435.5,207.5 z" fill="#000000" fill-opacity="1" stroke="#000000" stroke-width="1" stroke-opacity="1"/>
    </g>
    <g>
      <path d="M360.5,216.5 L504.5,216.5 L504.5,288.5 L360.5,288.5 L360.5,216.5 z" fill="#FFFFFF"/>
      <path d="M360.5,216.5 L504.5,216.5 L504.5,288.5 L360.5,288.5 L360.5,216.5 z" fill-opacity="0" stroke="#000000" stroke-width="1"/>
    </g>
    <text transform="matrix(1, 0, 0, 1, 432, 263.5)">
      <tspan x="-57.222" y="-6.5" font-family="PTSans-CaptionBold" font-size="18" fill="#000000">advertisising</tspan>
    </text>
    <text transform="matrix(1, 0, 0, 1, 428.494, 396)">
      <tspan x="-79.353" y="5" font-family="PTSans-CaptionBold" font-size="18" fill="#000000">Client Connected?</tspan>
    </text>
    <text transform="matrix(1, 0, 0, 1, 460.381, 467.5)">
      <tspan x="-14.49" y="5" font-family="PTSans-CaptionBold" font-size="18" fill="#000000">yes</tspan>
    </text>
    <g>
      <path d="M432.5,433.5 L432.5,493.5" fill-opacity="0" stroke="#000000" stroke-width="1"/>
      <path d="M429.5,493.5 L432.5,501.5 L435.5,493.5 z" fill="#000000" fill-opacity="1" stroke="#000000" stroke-width="1" stroke-opacity="1"/>
    </g>
    <text transform="matrix(1, 0, 0, 1, 600.039, 371)">
      <tspan x="-11.961" y="5" font-family="PTSans-CaptionBold" font-size="18" fill="#000000">No</tspan>
    </text>
    <g>
      <path d="M432.5,288.5 L432.5,351.5" fill-opacity="0" stroke="#000000" stroke-width="1"/>
      <path d="M429.5,351.5 L432.5,359.5 L435.5,351.5 z" fill="#000000" fill-opacity="1" stroke="#000000" stroke-width="1" stroke-opacity="1"/>
    </g>
    <path d="M612.5,252.5 C632.382,252.5 648.5,268.618 648.5,288.5" fill-opacity="0" stroke="#000000" stroke-width="1"/>
    <path d="M648.5,360.5 C648.5,380.382 632.382,396.5 612.5,396.5" fill-opacity="0" stroke="#000000" stroke-width="1"/>
    <path d="M648.5,288.5 L648.5,360.5" fill-opacity="0" stroke="#000000" stroke-width="1"/>
    <g>
      <path d="M612.5,252.5 L513.5,252.5" fill-opacity="0" stroke="#000000" stroke-width="1"/>
      <path d="M513.5,249.5 L505.5,252.5 L513.5,255.5 z" fill="#000000" fill-opacity="1" stroke="#000000" stroke-width="1" stroke-opacity="1"/>
    </g>
    <g>
      <path d="M324.5,502.5 L540.5,502.5 L540.5,574.5 L324.5,574.5 L324.5,502.5 z" fill="#FFFFFF"/>
      <path d="M324.5,502.5 L540.5,502.5 L540.5,574.5 L324.5,574.5 L324.5,502.5 z" fill-opacity="0" stroke="#000000" stroke-width="1"/>
    </g>
    <text transform="matrix(1, 0, 0, 1, 432, 551.5)">
      <tspan x="-79.614" y="-6.5" font-family="PTSans-CaptionBold" font-size="18" fill="#000000">Stop advertisising</tspan>
    </text>
    <g>
      <path d="M324.5,648.5 L540.5,648.5 L540.5,720.5 L324.5,720.5 L324.5,648.5 z" fill="#FFFFFF"/>
      <path d="M324.5,648.5 L540.5,648.5 L540.5,720.5 L324.5,720.5 L324.5,648.5 z" fill-opacity="0" stroke="#000000" stroke-width="1"/>
    </g>
    <text transform="matrix(1, 0, 0, 1, 432, 697.5)">
      <tspan x="-59.085" y="-6.5" font-family="PTSans-CaptionBold" font-size="18" fill="#000000">BLE - Services</tspan>
    </text>
    <path d="M612.5,396.5 L576.5,396.5" fill-opacity="0" stroke="#000000" stroke-width="1"/>
    <g>
      <path d="M432.5,574.5 L432.5,639.5" fill-opacity="0" stroke="#000000" stroke-width="1"/>
      <path d="M429.5,639.5 L432.5,647.5 L435.5,639.5 z" fill="#000000" fill-opacity="1" stroke="#000000" stroke-width="1" stroke-opacity="1"/>
    </g>
    <g>
      <path d="M432.5,360.5 L576.5,397 L432.5,433.5 L288.5,397 L432.5,360.5 z" fill="#FFFFFF"/>
      <path d="M432.5,360.5 L576.5,397 L432.5,433.5 L288.5,397 L432.5,360.5 z" fill-opacity="0" stroke="#000000" stroke-width="1"/>
    </g>
    <text transform="matrix(1, 0, 0, 1, 432, 839)">
      <tspan x="-71.722" y="-9.5" font-family="PTSans-CaptionBold" font-size="14" fill="#000000">Client Disconnected?</tspan>
    </text>
    <text transform="matrix(1, 0, 0, 1, 460.381, 875)">
      <tspan x="-14.49" y="5" font-family="PTSans-CaptionBold" font-size="18" fill="#000000">yes</tspan>
    </text>
    <path d="M432.5,898.5 C432.5,919.487 416.382,936.5 396.5,936.5" fill-opacity="0" stroke="#000000" stroke-width="1"/>
    <path d="M432.5,864.5 L432.5,898.5" fill-opacity="0" stroke="#000000" stroke-width="1"/>
    <path d="M252.5,936.5 C232.618,936.5 216.5,919.487 216.5,898.5" fill-opacity="0" stroke="#000000" stroke-width="1"/>
    <path d="M396.5,936.5 L252.5,936.5" fill-opacity="0" stroke="#000000" stroke-width="1"/>
    <text transform="matrix(1, 0, 0, 1, 432, 407.5)">
      <tspan x="-61.719" y="-9.5" font-family="PTSans-CaptionBold" font-size="14" fill="#000000">Client Connected?</tspan>
    </text>
    <path d="M576.5,828 L612.5,828.5" fill-opacity="0" stroke="#000000" stroke-width="1"/>
    <path d="M216.5,898.5 L216.5,288.5" fill-opacity="0" stroke="#000000" stroke-width="1"/>
    <path d="M612.5,684.5 C632.382,684.5 648.5,700.618 648.5,720.5" fill-opacity="0" stroke="#000000" stroke-width="1"/>
    <path d="M648.5,791.5 C648.5,811.935 632.382,828.5 612.5,828.5" fill-opacity="0" stroke="#000000" stroke-width="1"/>
    <path d="M648.5,791.5 L648.5,720.5" fill-opacity="0" stroke="#000000" stroke-width="1"/>
    <g>
      <path d="M612.5,684.5 L549.5,684.5" fill-opacity="0" stroke="#000000" stroke-width="1"/>
      <path d="M549.5,681.5 L541.5,684.5 L549.5,687.5 z" fill="#000000" fill-opacity="1" stroke="#000000" stroke-width="1" stroke-opacity="1"/>
    </g>
    <text transform="matrix(1, 0, 0, 1, 587.961, 816.5)">
      <tspan x="-11.961" y="5" font-family="PTSans-CaptionBold" font-size="18" fill="#000000">No</tspan>
    </text>
    <path d="M216.5,288.5 C216.5,268.618 232.618,252.5 252.5,252.5" fill-opacity="0" stroke="#000000" stroke-width="1"/>
    <g>
      <path d="M252.5,252.5 L351.5,252.5" fill-opacity="0" stroke="#000000" stroke-width="1"/>
      <path d="M351.5,255.5 L359.5,252.5 L351.5,249.5 z" fill="#000000" fill-opacity="1" stroke="#000000" stroke-width="1" stroke-opacity="1"/>
    </g>
    <text transform="matrix(1, 0, 0, 1, 192, 38.215)">
      <tspan x="-113.244" y="-4.215" font-family="PTSans-Caption" font-size="24" fill="#000000">BLE - Logic Schema</tspan>
    </text>
    <g>
      <path d="M432.5,720.5 L432.5,782.5" fill-opacity="0" stroke="#000000" stroke-width="1"/>
      <path d="M429.5,782.5 L432.5,790.5 L435.5,782.5 z" fill="#000000" fill-opacity="1" stroke="#000000" stroke-width="1" stroke-opacity="1"/>
    </g>
    <g>
      <path d="M198.5,216.5 L144.5,216.5" fill-opacity="0" stroke="#000000" stroke-width="1"/>
      <path d="M198.5,219.5 L204.5,219.5 L204.5,213.5 L198.5,213.5 z" fill="#000000" fill-opacity="1" stroke="#000000" stroke-width="1" stroke-opacity="1"/>
    </g>
    <text transform="matrix(1, 0, 0, 1, 100.519, 213)">
      <tspan x="-38.381" y="4" font-family="PTSans-CaptionBold" font-size="14" fill="#000000">D.Structure</tspan>
    </text>
    <g>
      <path d="M198.5,660.5 L144.5,660.5" fill-opacity="0" stroke="#000000" stroke-width="1"/>
      <path d="M198.5,663.5 L204.5,663.5 L204.5,657.5 L198.5,657.5 z" fill="#000000" fill-opacity="1" stroke="#000000" stroke-width="1" stroke-opacity="1"/>
    </g>
    <text transform="matrix(1, 0, 0, 1, 100.519, 657)">
      <tspan x="-38.381" y="4" font-family="PTSans-CaptionBold" font-size="14" fill="#000000">D.Structure</tspan>
    </text>
    <g>
      <path d="M12.5,108.5 L258.3,108.5" fill-opacity="0" stroke="#000000" stroke-width="5" stroke-opacity="0.499"/>
      <path d="M258.3,113.9 L272.7,108.5 L258.3,103.1 z" fill="#000000" fill-opacity="0.499" stroke="#000000" stroke-width="5" stroke-opacity="0.499"/>
    </g>
    <text transform="matrix(1, 0, 0, 1, 35.844, 87)">
      <tspan x="-14.1" y="7" font-family="PTSans-Caption" font-size="24" fill="#000000">S1</tspan>
    </text>
  </g>
</svg>
